<?xml version="1.0" standalone="no"?>
<!DOCTYPE svg PUBLIC "-//W3C//DTD SVG 20010904//EN"
 "http://www.w3.org/TR/2001/REC-SVG-20010904/DTD/svg10.dtd">
<svg version="1.0" xmlns="http://www.w3.org/2000/svg"
 width="1200.000000pt" height="1200.000000pt" viewBox="0 0 1200.000000 1200.000000"
 preserveAspectRatio="xMidYMid meet">

<g transform="translate(0.000000,1200.000000) scale(0.100000,-0.100000)"
fill="#000000" stroke="none">
<path d="M6010 11000 c0 -5 5 -10 11 -10 5 0 7 5 4 10 -3 6 -8 10 -11 10 -2 0
-4 -4 -4 -10z"/>
<path d="M5740 10986 c0 -14 28 -42 35 -34 2 2 2 14 -2 26 -6 24 -33 31 -33 8z"/>
<path d="M6120 10660 c0 -17 6 -32 13 -35 6 -2 91 -9 187 -15 382 -24 572 -50
855 -120 173 -42 478 -143 640 -210 55 -23 138 -58 185 -77 47 -19 141 -65
210 -103 121 -65 315 -170 367 -199 21 -11 27 -11 34 0 5 8 9 17 9 20 0 21
-686 383 -830 438 -498 190 -900 280 -1436 320 -77 6 -161 11 -187 11 -46 0
-47 -1 -47 -30z"/>
<path d="M5597 10669 c-392 -33 -848 -135 -1200 -269 -63 -24 -78 -43 -55 -66
13 -13 33 -9 164 35 383 128 697 193 1104 231 124 11 228 24 233 29 5 5 7 17
5 27 -3 16 -14 19 -78 20 -41 1 -119 -2 -173 -7z"/>
<path d="M3854 10314 c-18 -14 -18 -15 4 -4 12 6 22 13 22 15 0 8 -5 6 -26
-11z"/>
<path d="M5860 10321 c-23 -7 -191 -20 -267 -21 -18 0 -33 -4 -33 -9 0 -5 68
-7 158 -5 168 5 275 14 253 22 -11 4 -11 6 0 13 17 11 -75 11 -111 0z"/>
<path d="M6013 10316 c4 -10 7 -19 7 -21 0 -1 51 -3 113 -4 61 -1 173 -4 247
-7 89 -4 132 -2 125 4 -14 14 -164 31 -344 39 -144 6 -154 5 -148 -11z"/>
<path d="M5480 10290 l-55 -7 57 -1 c31 -1 60 3 63 8 3 6 3 9 -2 8 -4 -1 -33
-4 -63 -8z"/>
<path d="M3756 10265 c-11 -8 -16 -15 -10 -15 5 0 18 7 28 15 11 8 16 15 10
15 -5 0 -18 -7 -28 -15z"/>
<path d="M6628 10263 c7 -3 16 -2 19 1 4 3 -2 6 -13 5 -11 0 -14 -3 -6 -6z"/>
<path d="M6660 10260 c0 -6 17 -10 37 -10 43 0 41 5 -4 13 -19 4 -33 2 -33 -3z"/>
<path d="M5300 10250 c20 -13 33 -13 25 0 -3 6 -14 10 -23 10 -15 0 -15 -2 -2
-10z"/>
<path d="M5238 10243 c7 -3 16 -2 19 1 4 3 -2 6 -13 5 -11 0 -14 -3 -6 -6z"/>
<path d="M5130 10223 c0 -6 -8 -9 -18 -6 -10 2 -25 -3 -33 -13 -13 -16 -12
-16 6 -7 11 6 25 8 32 6 13 -5 28 15 19 24 -3 4 -6 2 -6 -4z"/>
<path d="M5020 10206 c0 -2 9 -6 20 -9 11 -3 20 -1 20 4 0 5 -9 9 -20 9 -11 0
-20 -2 -20 -4z"/>
<path d="M4935 10180 c-3 -6 5 -10 19 -10 14 0 28 5 31 10 3 6 -5 10 -19 10
-14 0 -28 -4 -31 -10z"/>
<path d="M7025 10182 c29 -13 93 -24 75 -13 -8 5 -33 12 -55 15 -27 4 -33 3
-20 -2z"/>
<path d="M4883 10173 c-13 -2 -23 -9 -23 -14 0 -5 -13 -9 -30 -9 -16 0 -39 -4
-52 -9 -13 -5 -41 -14 -63 -20 -22 -7 -49 -16 -60 -21 -11 -5 -51 -21 -90 -35
-38 -15 -83 -33 -100 -40 -16 -7 -50 -20 -74 -29 -70 -27 -231 -107 -231 -116
0 -4 26 5 58 21 119 58 190 89 205 89 9 0 19 5 22 10 3 6 13 10 21 10 8 0 34
9 56 20 23 11 49 20 59 20 9 0 34 8 55 17 22 9 41 17 44 18 23 5 87 29 95 36
5 5 17 9 28 9 19 0 107 37 107 45 0 3 -1 4 -2 4 -2 -1 -13 -4 -25 -6z"/>
<path d="M7135 10152 c6 -6 35 -17 65 -25 30 -8 87 -27 125 -42 39 -15 111
-42 160 -60 50 -18 107 -40 127 -49 65 -28 56 -16 -12 15 -177 83 -498 194
-465 161z"/>
<path d="M7677 9949 c7 -7 15 -10 18 -7 3 3 -2 9 -12 12 -14 6 -15 5 -6 -5z"/>
<path d="M7855 9862 c39 -21 87 -49 108 -61 20 -13 37 -18 37 -12 0 10 -190
111 -207 111 -5 0 24 -18 62 -38z"/>
<path d="M4040 9823 c-115 -61 -270 -153 -270 -162 0 -3 -14 -12 -31 -20 -16
-7 -28 -15 -25 -18 3 -3 27 7 53 22 26 15 73 41 103 58 30 17 82 46 115 66 33
20 71 42 85 49 34 17 77 52 65 51 -5 0 -48 -21 -95 -46z"/>
<path d="M8090 9736 c0 -3 9 -10 20 -16 11 -6 20 -8 20 -6 0 3 -9 10 -20 16
-11 6 -20 8 -20 6z"/>
<path d="M8160 9697 c0 -3 12 -12 26 -22 15 -9 23 -12 20 -6 -7 11 -46 35 -46
28z"/>
<path d="M8220 9657 c0 -3 17 -16 38 -28 20 -13 44 -28 52 -33 12 -8 13 -7 3
5 -13 16 -93 64 -93 56z"/>
<path d="M8344 9571 c4 -6 16 -16 28 -22 15 -8 18 -8 14 0 -4 6 -16 16 -28 22
-15 8 -18 8 -14 0z"/>
<path d="M8410 9526 c0 -2 8 -10 18 -17 15 -13 16 -12 3 4 -13 16 -21 21 -21
13z"/>
<path d="M8511 9444 c64 -67 126 -114 142 -108 24 9 9 31 -41 60 -26 15 -51
33 -57 39 -12 14 -62 45 -72 45 -4 0 9 -16 28 -36z"/>
<path d="M2749 9385 c-8 -13 -48 -59 -89 -102 -115 -121 -185 -204 -182 -215
1 -5 -1 -7 -6 -4 -5 3 -22 -11 -39 -32 -39 -49 -51 -74 -20 -40 14 15 28 24
32 20 3 -3 10 0 14 7 5 7 86 91 181 187 94 95 169 177 166 182 -13 21 -43 19
-57 -3z"/>
<path d="M3359 9346 c-14 -13 -39 -31 -55 -39 -26 -15 -27 -16 -7 -17 20 0 47
20 82 63 19 24 10 21 -20 -7z"/>
<path d="M3016 9045 c-9 -14 -22 -24 -29 -22 -6 1 -11 -4 -9 -11 1 -7 -4 -23
-13 -35 -9 -12 -15 -16 -15 -8 0 15 -45 -38 -45 -54 -1 -5 -6 -9 -12 -8 -15 3
-36 -24 -24 -31 5 -3 39 26 76 66 76 82 111 128 97 128 -5 0 -17 -11 -26 -25z"/>
<path d="M2829 8843 c-13 -16 -12 -17 4 -4 9 7 17 15 17 17 0 8 -8 3 -21 -13z"/>
<path d="M2709 8683 c-13 -16 -12 -17 4 -4 9 7 17 15 17 17 0 8 -8 3 -21 -13z"/>
<path d="M6040 8570 c0 -5 6 -10 14 -10 8 0 18 5 21 10 3 6 -3 10 -14 10 -12
0 -21 -4 -21 -10z"/>
<path d="M1975 8465 c-4 -11 -15 -28 -24 -39 -9 -10 -15 -20 -13 -22 5 -9 1
-37 -5 -31 -26 26 -322 -590 -393 -818 -7 -22 -16 -44 -20 -50 -9 -12 -110
-357 -145 -495 -44 -177 -88 -462 -105 -679 -12 -163 -13 -641 -1 -659 4 -8
19 -12 32 -10 l24 3 6 330 c9 502 49 806 163 1245 90 351 216 661 385 953 28
49 51 91 51 94 0 3 14 34 31 69 20 43 29 75 27 97 -3 28 -5 29 -13 12z"/>
<path d="M10090 8020 c6 -11 13 -20 16 -20 2 0 0 9 -6 20 -6 11 -13 20 -16 20
-2 0 0 -9 6 -20z"/>
<path d="M1215 7520 c28 -12 45 -12 45 0 0 6 -15 10 -32 9 -28 0 -30 -2 -13
-9z"/>
<path d="M1987 7136 c-4 -11 -10 -47 -14 -80 -4 -43 -9 -54 -14 -41 -6 17 -8
16 -8 -8 -1 -16 -14 -81 -30 -145 -17 -64 -37 -180 -45 -257 -21 -196 -31
-590 -17 -690 6 -44 11 -115 12 -159 1 -43 6 -97 10 -120 5 -22 11 -71 14
-107 3 -36 12 -85 20 -109 8 -23 15 -53 15 -66 0 -12 5 -26 10 -29 6 -3 10
-18 10 -33 0 -15 7 -45 15 -67 l14 -40 2 60 c2 75 -1 97 -12 111 -5 6 -16 67
-24 135 -9 68 -20 147 -26 174 -37 179 10 1080 59 1137 11 14 16 54 20 165 2
82 3 157 0 168 -3 19 -4 19 -11 1z m-40 -1758 c-3 -8 -6 -5 -6 6 -1 11 2 17 5
13 3 -3 4 -12 1 -19z"/>
<path d="M9642 6660 c0 -19 2 -27 5 -17 2 9 2 25 0 35 -3 9 -5 1 -5 -18z"/>
<path d="M2327 6426 c-4 -54 -6 -101 -3 -103 6 -7 18 137 14 172 -2 17 -7 -14
-11 -69z"/>
<path d="M6867 5680 c3 -11 9 -22 13 -25 5 -3 6 4 3 15 -3 11 -9 22 -13 25 -5
3 -6 -4 -3 -15z"/>
<path d="M6085 4300 c-3 -5 -1 -10 4 -10 6 0 11 5 11 10 0 6 -2 10 -4 10 -3 0
-8 -4 -11 -10z"/>
<path d="M5930 4249 c0 -5 5 -7 10 -4 6 3 10 8 10 11 0 2 -4 4 -10 4 -5 0 -10
-5 -10 -11z"/>
<path d="M6142 3970 c0 -14 2 -19 5 -12 2 6 2 18 0 25 -3 6 -5 1 -5 -13z"/>
<path d="M6153 3890 c0 -25 2 -35 4 -22 2 12 2 32 0 45 -2 12 -4 2 -4 -23z"/>
<path d="M6432 3840 c0 -19 2 -27 5 -17 2 9 2 25 0 35 -3 9 -5 1 -5 -18z"/>
<path d="M2860 3237 c52 -53 96 -97 97 -97 11 0 -24 38 -101 110 l-91 85 95
-98z"/>
<path d="M3726 3232 c-11 -18 38 -57 159 -127 154 -90 396 -213 515 -262 239
-99 472 -172 506 -159 8 3 12 2 9 -4 -3 -6 3 -10 14 -10 12 0 43 -8 70 -19 28
-10 52 -16 55 -13 3 2 11 0 18 -5 15 -12 93 -28 126 -26 12 1 22 -2 22 -7 0
-9 9 -11 73 -12 20 -1 37 -5 37 -10 0 -4 10 -8 23 -7 12 0 45 -5 72 -11 28 -6
67 -8 88 -4 26 4 37 2 37 -7 0 -8 15 -10 54 -6 37 4 56 2 60 -6 3 -8 8 -7 15
3 6 8 11 11 11 5 0 -6 35 -10 83 -11 45 -1 101 -4 125 -7 27 -4 42 -2 42 5 0
6 3 8 7 5 7 -7 33 11 33 23 0 3 -53 8 -117 9 -65 1 -167 6 -228 11 -60 5 -170
12 -244 16 -78 4 -145 12 -159 20 -14 7 -56 16 -94 20 -42 4 -65 10 -61 17 3
6 1 7 -5 3 -6 -4 -19 -2 -29 3 -10 6 -39 13 -65 16 -27 3 -48 10 -48 15 0 5
-17 12 -37 15 -39 7 -264 77 -318 100 -179 74 -276 120 -420 200 -93 51 -210
113 -260 138 -49 25 -107 57 -127 71 -21 14 -39 22 -42 18z m1767 -669 c-7 -2
-21 -2 -30 0 -10 3 -4 5 12 5 17 0 24 -2 18 -5z"/>
<path d="M3010 3096 c0 -2 8 -10 18 -17 15 -13 16 -12 3 4 -13 16 -21 21 -21
13z"/>
<path d="M8055 3080 c-3 -5 -1 -10 4 -10 6 0 11 5 11 10 0 6 -2 10 -4 10 -3 0
-8 -4 -11 -10z"/>
<path d="M3060 3057 c0 -2 28 -25 63 -52 34 -26 54 -39 44 -28 -18 20 -107 87
-107 80z"/>
<path d="M7855 2995 c-151 -81 -393 -189 -507 -226 -146 -48 -476 -129 -608
-149 -146 -23 -545 -57 -701 -60 -11 0 -16 -9 -16 -24 0 -20 4 -23 31 -20 17
1 96 5 176 8 177 7 326 21 488 47 123 19 394 82 441 102 14 6 36 12 47 13 42
5 105 25 100 32 -2 4 9 7 25 8 16 1 46 8 67 17 20 9 87 35 147 58 128 49 411
182 437 206 21 18 24 53 6 52 -7 0 -67 -29 -133 -64z m-695 -305 c0 -5 -5 -10
-11 -10 -5 0 -7 5 -4 10 3 6 8 10 11 10 2 0 4 -4 4 -10z"/>
<path d="M6119 3033 c-13 -16 -12 -17 4 -4 16 13 21 21 13 21 -2 0 -10 -8 -17
-17z"/>
<path d="M6448 3003 c7 -3 16 -2 19 1 4 3 -2 6 -13 5 -11 0 -14 -3 -6 -6z"/>
<path d="M5975 2970 c3 -5 8 -10 11 -10 2 0 4 5 4 10 0 6 -5 10 -11 10 -5 0
-7 -4 -4 -10z"/>
<path d="M3724 2647 c3 -7 9 -19 12 -28 5 -15 431 -230 564 -285 347 -143 740
-242 1140 -288 472 -54 1037 -37 1442 44 348 69 783 214 1030 342 69 36 101
68 84 85 -2 3 -87 -31 -188 -75 -555 -242 -1043 -356 -1585 -369 l-213 -5 0
28 c0 21 -3 25 -9 15 -5 -8 -7 -20 -4 -27 9 -24 -49 -28 -262 -16 -545 30
-1004 140 -1520 365 -288 126 -360 158 -428 192 -38 18 -66 28 -63 22z"/>
<path d="M5990 2190 c0 -5 5 -10 10 -10 6 0 10 5 10 10 0 6 -4 10 -10 10 -5 0
-10 -4 -10 -10z"/>
<path d="M5990 2161 c0 -6 5 -13 10 -16 6 -3 10 1 10 9 0 9 -4 16 -10 16 -5 0
-10 -4 -10 -9z"/>
<path d="M9085 1926 c-22 -12 -56 -38 -76 -57 -51 -49 -131 -114 -140 -114 -4
0 -22 -11 -41 -25 -18 -14 -37 -25 -43 -25 -5 -1 -29 -13 -52 -28 -24 -15 -47
-27 -52 -27 -6 0 -15 -9 -21 -20 -13 -23 -1 -26 33 -9 50 27 277 182 322 222
74 63 121 107 115 105 -3 0 -23 -10 -45 -22z"/>
<path d="M3789 1706 c17 -20 247 -132 371 -179 244 -94 574 -191 805 -236 611
-120 1503 -133 2005 -30 287 59 591 153 610 189 12 22 3 50 -16 50 -8 0 -83
-22 -167 -49 -382 -124 -593 -160 -1083 -187 -703 -38 -1247 22 -1853 205
-136 41 -425 143 -472 167 -55 27 -209 82 -200 70z"/>
<path d="M7926 1275 c-33 -14 -104 -41 -158 -61 -54 -20 -97 -39 -94 -41 12
-13 326 101 326 118 0 13 -8 11 -74 -16z"/>
<path d="M6266 1006 c3 -9 11 -16 16 -16 13 0 5 23 -10 28 -7 2 -10 -2 -6 -12z"/>
<path d="M6153 965 c5 -13 87 -19 99 -7 7 7 -10 11 -46 14 -34 2 -55 -1 -53
-7z"/>
</g>
</svg>
